<svg xmlns="http://www.w3.org/2000/svg" viewBox="0 0 37 37"><defs><style>.cls-1{fill:#ed5a4f;}.cls-2{fill:#fff;}.cls-3{fill:#231f20;opacity:0.1;isolation:isolate;}</style></defs><title>googleplus-icon</title><g id="Layer_2" data-name="Layer 2"><g id="footer"><g id="icon"><circle class="cls-1" cx="18.5" cy="18.5" r="18.5"/><path class="cls-2" d="M21.39,17.38a8.6,8.6,0,0,1-1.54,6.1,7.51,7.51,0,0,1-8.22,2.19,7.63,7.63,0,1,1,7.56-12.94c-.62.69-1.25,1.36-1.93,2a5.34,5.34,0,0,0-4.51-.89A4.82,4.82,0,1,0,16,22.91,4.23,4.23,0,0,0,18.47,20C17,20,15.56,20,14.1,20v-2.6C16.53,17.37,19,17.36,21.39,17.38Zm7,.8c0-.72,0-1.36,0-2.2H26.15c0,.84,0,1.48,0,2.2-.75,0-1.39,0-2.26,0v2.17h2.26l0,2.18h2.23c0-.73,0-1.45,0-2.18h2.21V18.22C29.89,18.22,29.11,18.19,28.37,18.18Z"/><path class="cls-3" d="M5.42,31.58A18.5,18.5,0,1,0,31.58,5.42Z"/></g></g></g></svg>