<svg xmlns="http://www.w3.org/2000/svg" viewBox="0 0 119.15 51.03"><defs><style>.cls-1{fill:#00a186;}</style></defs><title>kiwi-flower</title><g id="Layer_2" data-name="Layer 2"><g id="footer"><path class="cls-1" d="M43.26,18.36c-3.21-4.41-15,.52-19.38,2.52C27.39,17.26,36.81,6.8,33.46,2.22c0,0-4.54-5.95-10.13,1.63l-.47.23C20.88,1.4,16-2,12.25,3.62,9.32,8,17.42,17,21,20.58c-5.19-1.4-18.18-4.33-20.54.65,0,0-3,6.84,6.29,8.12l.43.3c-1.4,3-2,8.94,4.68,9.53,5.53.49,9.62-12.1,10.88-16.5l.08.17C20.38,37.05,13,49,14,49.32A20.42,20.42,0,0,1,17.3,51C20,47.53,23,28.91,23.11,23.44c2.26,4.69,8.7,16.82,14.1,15.3,0,0,7.15-2.2,2-10.07l-.06-.52C42.34,27.22,47.21,23.8,43.26,18.36ZM23,21.77Zm.14-.54v0h0c0-.11,0-.23,0-.34v.35h0Z"/><path class="cls-1" d="M68.51,30.51s0-.17.16-.48c.84-2.46,5-13.57,12.34-15.34-.27-2.26,5.31-4,7.71-1.6,4.66-8.69,21-8.1,26.85-3.32,5.39,4.41,5.7,16-6.25,22.73l-.13,8.25h1.46l-2.12,3.85-.4-2.26-5.19,3.33,3.33-3.73-1.47-.53,1.86-1.59L107.2,33s-4.12-2.26-2.93-4.92c.27.4-.26,1.46-3.72,3.59l.27,7.58L98,43.54l.67-2.79-5.85,4,4-4.39h-2l3.06-1.86L98,31.31s-3-.13-6.51-6.25c-.27.4-2.66-3.06-8.38-1.33.27.27-4.38-1.86-4.52-4.12C78.61,20,75.16,19.34,68.51,30.51Z"/></g></g></svg>