<svg xmlns="http://www.w3.org/2000/svg" viewBox="0 0 37 37"><defs><style>.cls-1{fill:#0173b2;}.cls-2{fill:#fff;}.cls-3{fill:#231f20;opacity:0.1;isolation:isolate;}</style></defs><title>linkedin-icon</title><g id="Layer_2" data-name="Layer 2"><g id="footer"><g id="icon"><circle class="cls-1" cx="18.5" cy="18.5" r="18.5"/><path class="cls-2" d="M11.94,8.39a2.13,2.13,0,0,0-2.31,2.12,2.09,2.09,0,0,0,2.25,2.1h0a2.12,2.12,0,1,0,0-4.22ZM24.18,14a4.08,4.08,0,0,0-3.69,1.95v0h0l0,0V14.3H16.22c.05,1,0,12.13,0,11.77h4.27v-6.5a1.21,1.21,0,0,1,0-1,2.21,2.21,0,0,1,2.08-1.49c1.48,0,2.08,1.12,3,2.78v6.21H28.9V19.3C28.9,15.68,26.87,14,24.18,14ZM10.4,14.3V26.07h3.36V14.3Z"/><path class="cls-3" d="M5.42,31.58A18.5,18.5,0,1,0,31.58,5.42Z"/></g></g></g></svg>