<svg xmlns="http://www.w3.org/2000/svg" viewBox="0 0 358.52 49"><defs><style>.cls-1{isolation:isolate;}.cls-2{fill:#e8e8e8;}.cls-3{fill:#ff6138;}.cls-4{fill:#79bb8d;}.cls-5{fill:#00a186;}.cls-6{fill:#ffff9b;}</style></defs><title>logo</title><g id="Layer_2" data-name="Layer 2"><g id="header"><g id="naviation_menu" data-name="naviation menu"><g class="cls-1"><g class="cls-1"><path class="cls-2" d="M80.61,30.49H77.08l-.82,4H73.78L77.7,17.12H80l3.92,17.37H81.42Zm-3.08-2.21h2.6l-1.29-6.35Z"/><path class="cls-2" d="M85.29,34.49V17.12h3.5c2.63,0,4.37,1.34,4.37,4.81a3.72,3.72,0,0,1-1.79,3.5c1.34.57,2.14,2,2.14,4,0,3.5-1.74,5.07-4.37,5.07Zm3.25-10c1.54,0,2.24-.75,2.24-2.56s-.7-2.55-2.24-2.55h-.86v5.11Zm-.86,2.21v5.63h1.21c1.47,0,2.26-.8,2.26-2.83s-.79-2.8-2.21-2.8Z"/><path class="cls-2" d="M99.19,17.12c2.63,0,4.49,1.41,4.49,5.06v7.24c0,3.65-1.86,5.07-4.49,5.07h-3.7V17.12Zm2.11,5.51c0-2.49-.6-3.3-2-3.3H97.87v13h1.44c1.39,0,2-.82,2-3.3Z"/><path class="cls-2" d="M105.74,29.62V17.12h2.38V29.18c0,2.3.52,3.39,1.88,3.39s1.89-1.09,1.89-3.39V17.12h2.38v12.5c0,3.48-1.69,5.16-4.27,5.16S105.74,33.1,105.74,29.62Z"/><path class="cls-2" d="M116.67,17.12h2.39V32.28h5.08v2.21h-7.47Z"/><path class="cls-2" d="M125.71,34.49V17.12h3.49c2.63,0,4.37,1.34,4.37,4.81a3.72,3.72,0,0,1-1.79,3.5c1.34.57,2.14,2,2.14,4,0,3.5-1.74,5.07-4.37,5.07Zm3.25-10c1.53,0,2.23-.75,2.23-2.56s-.7-2.55-2.23-2.55h-.87v5.11Zm-.87,2.21v5.63h1.21c1.47,0,2.26-.8,2.26-2.83s-.79-2.8-2.21-2.8Z"/><path class="cls-2" d="M141.46,30.49h-3.52l-.82,4h-2.48l3.92-17.37h2.28l3.92,17.37h-2.48Zm-3.08-2.21H141l-1.29-6.35Z"/><path class="cls-2" d="M151.61,29.55c0-1.66-.48-2.24-1.92-2.73l-.71-.25c-2.54-.87-3.33-2-3.33-5v-.24c0-2.63,1.12-4.52,4-4.52s4,1.76,4,5.06l-2.38.13c0-2.06-.34-3-1.61-3s-1.59.82-1.59,2.36v.32c0,1.66.47,2.23,1.91,2.73l.72.25c2.53.86,3.33,2,3.33,5v.42c0,2.83-1.34,4.69-4.07,4.69s-4.22-1.58-4.22-5.06l2.38-.12c0,2.23.57,3,1.79,3s1.74-.79,1.74-2.53Z"/><path class="cls-2" d="M158.35,34.49H156V17.12h2.38Z"/><path class="cls-2" d="M159.91,17.12h8.54v2.21h-3.08V34.49H163V19.33h-3.08Z"/><path class="cls-2" d="M174.6,34.49V17.12h3.5c2.63,0,4.37,1.34,4.37,4.81a3.72,3.72,0,0,1-1.79,3.5c1.34.57,2.13,2,2.13,4,0,3.5-1.73,5.07-4.36,5.07Zm3.25-10c1.54,0,2.23-.75,2.23-2.56s-.69-2.55-2.23-2.55H177v5.11ZM177,26.65v5.63h1.22c1.46,0,2.26-.8,2.26-2.83s-.8-2.8-2.21-2.8Z"/><path class="cls-2" d="M190.36,30.49h-3.53l-.82,4h-2.48l3.92-17.37h2.28l3.92,17.37h-2.48Zm-3.08-2.21h2.6l-1.29-6.35Z"/><path class="cls-2" d="M200.5,29.55c0-1.66-.47-2.24-1.91-2.73l-.72-.25c-2.53-.87-3.32-2-3.32-5v-.24c0-2.63,1.11-4.52,4-4.52s4,1.76,4,5.06l-2.38.13c0-2.06-.35-3-1.61-3s-1.59.82-1.59,2.36v.32c0,1.66.47,2.23,1.91,2.73l.72.25c2.53.86,3.32,2,3.32,5v.42c0,2.83-1.34,4.69-4.07,4.69s-4.21-1.58-4.21-5.06L197,29.6c0,2.23.57,3,1.78,3s1.74-.79,1.74-2.53Z"/><path class="cls-2" d="M209.33,19.33h-4.81V17.12H212v2l-5,13.2h5v2.21h-7.64v-2Z"/><path class="cls-2" d="M216.35,34.49H214V17.12h2.38Z"/><path class="cls-2" d="M227.24,29.42c0,3.65-1.73,5.36-4.36,5.36s-4.37-1.71-4.37-5.36V22.18c0-3.65,1.74-5.36,4.37-5.36s4.36,1.71,4.36,5.36Zm-2.38-6.79c0-2.49-.59-3.6-2-3.6s-2,1.11-2,3.6V29c0,2.48.6,3.59,2,3.59s2-1.11,2-3.59Z"/><path class="cls-2" d="M229.4,17.12h2.38V32.28h5.09v2.21H229.4Z"/><path class="cls-2" d="M244.14,30.49h-3.53l-.81,4h-2.48l3.92-17.37h2.28l3.92,17.37H245Zm-3.08-2.21h2.61l-1.29-6.35Z"/><path class="cls-2" d="M258.53,15.06h2.28V36.79h-2.28Z"/></g><g class="cls-1"><path class="cls-2" d="M284,27.14v7.35h-1.14V17.12h3c2.8,0,4.39,1.66,4.39,5s-1.59,5-4.39,5Zm1.69-1c2.33,0,3.4-1.32,3.4-4s-1.07-4-3.4-4H284V26.1Z"/><path class="cls-2" d="M292,21.93c0-3.5,1.59-5.11,3.94-5.11s4,1.61,4,5.11v7.74c0,3.5-1.58,5.11-4,5.11S292,33.17,292,29.67Zm1.14,7.54c0,3,1.07,4.27,2.8,4.27s2.83-1.26,2.83-4.27V22.13c0-3-1.06-4.27-2.83-4.27s-2.8,1.27-2.8,4.27Z"/><path class="cls-2" d="M303.5,26.89v7.6h-1.14V17.12h2.95c2.8,0,4.39,1.64,4.39,4.89,0,2.38-.84,3.89-2.38,4.54l2.7,7.94h-1.16l-2.58-7.67a6.24,6.24,0,0,1-1,.07Zm0-1h1.68c2.34,0,3.4-1.29,3.4-3.84s-1.06-3.85-3.4-3.85H303.5Z"/><path class="cls-2" d="M310.59,17.12h7.74v1H315V34.49h-1.14V18.16h-3.3Z"/><path class="cls-2" d="M320.09,17.12h6.63v1h-5.49v7.05h4.92v1h-4.92v8.24h-1.14Z"/><path class="cls-2" d="M328.28,21.93c0-3.5,1.59-5.11,3.94-5.11s4,1.61,4,5.11v7.74c0,3.5-1.58,5.11-4,5.11s-3.94-1.61-3.94-5.11Zm1.14,7.54c0,3,1.07,4.27,2.8,4.27s2.83-1.26,2.83-4.27V22.13c0-3-1.06-4.27-2.83-4.27s-2.8,1.27-2.8,4.27Z"/><path class="cls-2" d="M338.67,17.12h1.15V33.44h5.4v1.05h-6.55Z"/><path class="cls-2" d="M348.13,34.49H347V17.12h1.14Z"/><path class="cls-2" d="M350.61,21.93c0-3.5,1.58-5.11,3.94-5.11s4,1.61,4,5.11v7.74c0,3.5-1.59,5.11-4,5.11s-3.94-1.61-3.94-5.11Zm1.14,7.54c0,3,1.06,4.27,2.8,4.27s2.83-1.26,2.83-4.27V22.13c0-3-1.07-4.27-2.83-4.27s-2.8,1.27-2.8,4.27Z"/></g></g><path class="cls-3" d="M49,24.43a24.44,24.44,0,0,1-8.42,18.46l-6.1-7.06a15.31,15.31,0,0,0,.68-22.53l6.37-6.51A24.47,24.47,0,0,1,49,24.43Z"/><path class="cls-4" d="M41.53,6.92,35,13.57a15.48,15.48,0,0,0-10.59-4.2A15.15,15.15,0,0,0,11.27,17l-8-4.62A24.43,24.43,0,0,1,41.53,6.92Z"/><path class="cls-5" d="M20.22,39.09l-2.57,9h0A24.47,24.47,0,0,1,3.26,12.35l8,4.62a15.76,15.76,0,0,0-2,7.6A15.27,15.27,0,0,0,20.22,39.09Z"/><path class="cls-6" d="M40.58,43a24.16,24.16,0,0,1-16.15,6,28.54,28.54,0,0,1-6.92-1l2.58-9a15.21,15.21,0,0,0,4.34.68,14.94,14.94,0,0,0,10-3.8Z"/></g></g></g></svg>