<svg xmlns="http://www.w3.org/2000/svg" viewBox="0 0 37 37"><defs><style>.cls-1{fill:#55aed4;}.cls-2{fill:#fff;}.cls-3{fill:#231f20;opacity:0.1;isolation:isolate;}</style></defs><title>twitter-icon</title><g id="Layer_2" data-name="Layer 2"><g id="footer"><g id="icon"><circle class="cls-1" cx="18.5" cy="18.5" r="18.5"/><path class="cls-2" d="M6.05,21.5a6.79,6.79,0,0,0,9.29-.4,1.71,1.71,0,0,1-1.52-.41.85.85,0,0,1-.19-1.1,2.29,2.29,0,0,1,.83-.68,2.42,2.42,0,0,1-1.59-.19c-.62-.32-1.22-.65-1.39-1.34a1.72,1.72,0,0,1,1.72-.62A5.44,5.44,0,0,1,11,15.53a2.11,2.11,0,0,1-.69-1.33,3.42,3.42,0,0,1,1.5-.21,3.71,3.71,0,0,1-2-2.39,1.73,1.73,0,0,1-.07-.81c4.87,1.84,7.16,3.16,8.42,4.4.56-1.51,1.89-4.92,3.86-6.1a1,1,0,0,1-.21.6c.58-.32,1-.84,1.84-.83a1.25,1.25,0,0,1-.88.88,9.28,9.28,0,0,1,1.61-.48c.52-.09.51.32.22.52a6.14,6.14,0,0,1-1.83.67,5.35,5.35,0,0,1,4.62,2.87,4.51,4.51,0,0,1,.73,2,5.46,5.46,0,0,0,2.41.13,2.58,2.58,0,0,0,.62-.17,2.49,2.49,0,0,1-1.18,1,5.11,5.11,0,0,1-1.51.34,6.6,6.6,0,0,0,2.82.28,3.64,3.64,0,0,1-3.05,1.12,9.39,9.39,0,0,1-3,5,12.23,12.23,0,0,1-7.32,3.24,13.41,13.41,0,0,1-7.23-1A11.65,11.65,0,0,1,6.05,21.5Z"/><path class="cls-3" d="M5.42,31.58A18.5,18.5,0,1,0,31.58,5.42Z"/></g></g></g></svg>