<svg xmlns="http://www.w3.org/2000/svg" viewBox="0 0 37 37"><defs><style>.cls-1{fill:#d82b2b;}.cls-2{fill:#fff;}.cls-3{fill:#231f20;opacity:0.1;isolation:isolate;}</style></defs><title>youtube-icon</title><g id="Layer_2" data-name="Layer 2"><g id="footer"><g id="icon"><circle class="cls-1" cx="18.5" cy="18.5" r="18.5"/><path class="cls-2" d="M16.91,24.88a43.7,43.7,0,0,1-5.63-.27A2.55,2.55,0,0,1,10,24a2.61,2.61,0,0,1-.61-1.12,6.54,6.54,0,0,1-.26-1.65,36.86,36.86,0,0,1,0-5.36c.11-1,.17-2.16,1-2.84a2.62,2.62,0,0,1,1.27-.62c.75-.13,3.93-.24,7.23-.24s6.48.11,7.23.24a2.52,2.52,0,0,1,1.48.84,6.85,6.85,0,0,1,.8,3.41c0,.5,0,3.29,0,3.78a8.52,8.52,0,0,1-.46,2.8,2.1,2.1,0,0,1-.52.8,2.57,2.57,0,0,1-1.33.65c-3.15.22-5.82.27-8.85.23Zm5.32-6.55-5.1-2.57v5.11c1.68-.94,3.67-1.79,5.11-2.55Z"/><path class="cls-3" d="M5.42,31.58A18.5,18.5,0,1,0,31.58,5.42Z"/></g></g></g></svg>